<svg width="50" height="50" viewBox="0 0 50 50" fill="none" xmlns="http://www.w3.org/2000/svg">
<path d="M48.6201 11.6148L26.8278 0.456052C25.6403 -0.152017 24.3591 -0.152017 23.1724 0.456052L1.3793 11.6148C-0.459767 12.5562 -0.459767 16.6096 1.3793 17.551L5.17854 19.4963C4.34494 21.2137 3.83244 23.3088 3.78166 25.603C3.02931 26.3218 2.49962 27.6186 2.49962 29.1668C2.49962 30.5704 2.94337 31.7514 3.58244 32.5066L1.5879 47.4649C1.41446 48.7656 2.00821 50 2.80743 50H7.19104C7.99105 50 8.5848 48.7656 8.41136 47.4649L6.41682 32.5066C7.05589 31.7514 7.49964 30.5704 7.49964 29.1668C7.49964 27.6603 6.99417 26.3999 6.2762 25.6681C6.33557 23.7124 6.93557 21.9833 7.89261 20.8869L23.1716 28.7111C23.8794 29.0731 25.2372 29.5249 26.8271 28.7111L48.6201 17.5523C50.46 16.6096 50.46 12.5575 48.6201 11.6148ZM27.5614 32.6941C25.3325 33.8347 23.4333 33.2045 22.4372 32.6941L11.1075 26.8934L9.99965 41.6667C9.99965 46.2696 16.7153 50 24.9997 50C33.2841 50 39.9998 46.2696 39.9998 41.6667L38.8919 26.8921L27.5614 32.6941Z" fill="black"/>
</svg>
